:SAMPLES-PER-SECOND 30
:FULLY-SPECIFIED
:DEGREES
164
root  5.192266674 37.68910986 1.615446759 -159.0889893 -81.02549744 159.7030029
lowerback  15.50559998 5.409220219 -5.585030079
upperback  7.194580078 5.90486002 0.3248699903
thorax  -1.602090001 2.641060114 2.47191
lowerneck  1.742370009 8.373450279 0.5110409856
upperneck  3.671950102 11.14729977 -0.7949630022
head  0.9160569906 5.552400112 -0.283412993
lclavicle  0 -9.442270133e-015 7.951389973e-016
lhumerus  -4.190919876 -15.79730034 87.22540283
lradius  2.190306599e-031 -2.769729416e-031 128.3370056
lwrist  -1.412450015e-030 -1.765562519e-031 8.800239563
lhand  -1.496451383e-031 -27.76390076 20.11240005
lfingers  90 7.125020027 -90
lthumb  89.89689403 5.08795885 91.16245106
rclavicle  0 -9.442270133e-015 7.951389973e-016
rhumerus  1.01899004 26.18190002 -88.35870361
rradius  -1.841538273e-031 3.012902392e-031 121.4339981
rwrist  7.062250077e-031 -0 -6.071780205
rhand  -7.920061211e-032 -33.2840004 9.303460121
rfingers  -90 -7.125020027 -90
rthumb  -92.93752616 -24.25625642 -97.11982154
rfemur  -17.23089981 0.5659149885 1.190870047
rtibia  -0 0 70.39969635
rfoot  -4.474166174e-032 -9.414219856 -4.836880207
rtoes  5.373923086 19.29304026 -105.8922705
lfemur  -32.47669983 -9.258850098 -1.650189996
ltibia  -0 0 45.95560074
lfoot  4.45444608e-032 -7.735909939 3.58333993
ltoes  -4.250644065 -19.5611806 -102.515957
165
root  5.222644581 37.97111211 1.505097817 -157.473999 -81.15090179 157.9979858
lowerback  15.71140003 5.35337019 -5.717319965
upperback  7.127240181 5.799180031 0.3343439996
thorax  -1.785259962 2.591799974 2.555799961
lowerneck  1.650279999 8.290289879 0.2341479957
upperneck  3.700259924 11.02929974 -0.5862460136
head  0.9104660153 5.491529942 -0.1759659946
lclavicle  0 -9.442270133e-015 7.951389973e-016
lhumerus  -3.786609888 -15.92010021 86.52510071
lradius  2.222975538e-031 -2.743578647e-031 129.0160065
lwrist  -7.062250077e-031 -1.765562519e-031 8.293560028
lhand  -1.496451383e-031 -27.76390076 20.11240005
lfingers  90 7.125020027 -90
lthumb  89.89689403 5.08795885 91.16245106
rclavicle  0 -9.442270133e-015 7.951389973e-016
rhumerus  1.278290033 26.45170021 -88.35009766
rradius  -1.872674372e-031 2.993649066e-031 122.0279999
rwrist  0 -0 -6.247360229
rhand  -7.920061211e-032 -33.2840004 9.303460121
rfingers  -90 -7.125020027 -90
rthumb  -92.93752616 -24.25625642 -97.11982154
rfemur  -17.28429985 0.2558549941 0.7215340137
rtibia  -0 0 69.86029816
rfoot  -4.450697422e-032 -7.372159958 -3.45510006
rtoes  5.373923086 19.29304026 -105.8922705
lfemur  -31.66010094 -9.083640099 -1.866080046
ltibia  -0 0 44.31729889
lfoot  4.4380399e-032 -5.977920055 3.261310101
ltoes  -4.250644065 -19.5611806 -102.515957
166
root  5.253889054 38.24444568 1.382882201 -156.3300171 -81.34249878 156.9949951
lowerback  15.75520039 5.254340172 -5.598790169
upperback  6.975739956 5.684510231 0.1804500073
thorax  -1.933240056 2.549230099 2.340990067
lowerneck  1.438500047 8.208510399 0.2871089876
upperneck  3.706279993 10.91609955 -0.3606809974
head  0.9359200001 5.437600136 -0.1083199978
lclavicle  0 -9.442270133e-015 7.951389973e-016
lhumerus  -3.310640097 -16.1086998 85.563797
lradius  2.255758451e-031 -2.716688765e-031 129.7039948
lwrist  -7.062250077e-031 -0 8.038629532
lhand  -1.496451383e-031 -27.76390076 20.11240005
lfingers  90 7.125020027 -90
lthumb  89.89689403 5.08795885 91.16245106
rclavicle  0 -9.442270133e-015 7.951389973e-016
rhumerus  1.650439978 26.64279938 -88.51529694
rradius  -1.906099903e-031 2.972478292e-031 122.6699982
rwrist  7.062250077e-031 -3.531125038e-031 -6.273519993
rhand  -7.920061211e-032 -33.2840004 9.303460121
rfingers  -90 -7.125020027 -90
rthumb  -92.93752616 -24.25625642 -97.11982154
rfemur  -17.67720032 -0.0214278996 0.4342220128
rtibia  -0 0 69.4618988
rfoot  -4.434025155e-032 -5.460149765 -2.038039923
rtoes  5.373923086 19.29304026 -105.8922705
lfemur  -31.1487999 -8.845049858 -1.863639951
ltibia  -0 0 42.74549866
lfoot  4.426968138e-032 -4.402440071 2.841449976
ltoes  -4.250644065 -19.5611806 -102.515957
167
root  5.28422228 38.4937767 1.262188896 -155.4589844 -81.50980377 156.2789917
lowerback  15.80370045 5.124189854 -5.411159992
upperback  6.790390015 5.53922987 0.01236679964
thorax  -2.110850096 2.494290113 2.077339888
lowerneck  1.043409944 8.18776989 0.3736509979
upperneck  3.969049931 10.88440037 -0.1925870031
head  1.078019977 5.422959805 -0.0465516001
lclavicle  0 -9.442270133e-015 7.951389973e-016
lhumerus  -2.944220066 -16.20999908 84.67639923
lradius  2.289014623e-031 -2.688727598e-031 130.4089966
lwrist  0 -0 7.817959785
lhand  -1.496451383e-031 -27.76390076 20.11240005
lfingers  90 7.125020027 -90
lthumb  89.89689403 5.08795885 91.16245106
rclavicle  0 -9.442270133e-015 7.951389973e-016
rhumerus  1.841940045 27.13010025 -88.76039886
rradius  -1.935421855e-031 2.95347021e-031 123.2369995
rwrist  7.062250077e-031 -1.765562519e-031 -5.5082798
rhand  -7.920061211e-032 -33.2840004 9.303460121
rfingers  -90 -7.125020027 -90
rthumb  -92.93752616 -24.25625642 -97.11982154
rfemur  -18.11650085 -0.2781069875 0.2083089948
rtibia  -0 0 69.14630127
rfoot  -4.425090254e-032 -4.074419975 -0.736544013
rtoes  5.373923086 19.29304026 -105.8922705
lfemur  -30.71450043 -8.821040154 -1.747130036
ltibia  -0 0 41.30390167
lfoot  4.419818239e-032 -2.963799953 2.653350115
ltoes  -4.250644065 -19.5611806 -102.515957
168
root  5.31633332 38.72644319 1.143086707 -154 -81.61769867 154.9680176
lowerback  15.79570007 5.012919903 -5.494760036
upperback  6.639870167 5.388120174 -0.0262511
thorax  -2.257780075 2.429049969 2.105880022
lowerneck  0.5787069798 8.177209854 0.1934770048
upperneck  4.208059788 10.86970043 -0.08525119722
head  1.214239955 5.413529873 0.04058590159
lclavicle  0 -9.442270133e-015 7.951389973e-016
lhumerus  -2.604110003 -16.24480057 84.10549927
lradius  2.319787369e-031 -2.662222868e-031 131.0679932
lwrist  -7.062250077e-031 -0 7.335309982
lhand  -1.496451383e-031 -27.76390076 20.11240005
lfingers  90 7.125020027 -90
lthumb  89.89689403 5.08795885 91.16245106
rclavicle  0 -9.442270133e-015 7.951389973e-016
rhumerus  2.151799917 27.7947998 -88.59629822
rradius  -1.963376124e-031 2.934961368e-031 123.7809982
rwrist  7.062250077e-031 -1.765562519e-031 -4.99559021
rhand  -7.920061211e-032 -33.2840004 9.303460121
rfingers  -90 -7.125020027 -90
rthumb  -92.93752616 -24.25625642 -97.11982154
rfemur  -18.52619934 -0.4177800119 -0.06539539993
rtibia  -0 0 68.85279846
rfoot  -4.421469227e-032 -3.351670027 0.3418540061
rtoes  5.373923086 19.29304026 -105.8922705
lfemur  -30.37249947 -8.912810326 -1.730180025
ltibia  -0 0 40.09360123
lfoot  4.415679304e-032 -1.623710036 2.791569948
ltoes  -4.250644065 -19.5611806 -102.515957
169
root  5.352777947 38.9328874 1.02472662 -152.6829834 -81.76560211 153.7579956
lowerback  15.80620003 4.889589787 -5.562180042
upperback  6.506229877 5.221660137 -0.04780060053
thorax  -2.39538002 2.35532999 2.146080017
lowerneck  0.2824159861 8.132809639 0.127395004
upperneck  4.108829975 10.8192997 -0.1854660064
head  1.234930038 5.387760162 0.03139229864
lclavicle  0 -9.442270133e-015 7.951389973e-016
lhumerus  -2.277400017 -16.1868 83.57520294
lradius  2.346986473e-031 -2.638275674e-031 131.6560059
lwrist  -1.412450015e-030 -0 6.888720036
lhand  -1.496451383e-031 -27.76390076 20.11240005
lfingers  90 7.125020027 -90
lthumb  89.89689403 5.08795885 91.16245106
rclavicle  0 -9.442270133e-015 7.951389973e-016
rhumerus  2.558429956 28.42569923 -88.3302002
rradius  -1.992629128e-031 2.915179788e-031 124.3539963
rwrist  7.062250077e-031 -1.765562519e-031 -5.129079819
rhand  -7.920061211e-032 -33.2840004 9.303460121
rfingers  -90 -7.125020027 -90
rthumb  -92.93752616 -24.25625642 -97.11982154
rfemur  -18.82710075 -0.3661749959 -0.2741369903
rtibia  -0 0 68.55400085
rfoot  -5.525239308e-032 -3.055809975 1.284420013
rtoes  5.373923086 19.29304026 -105.8922705
lfemur  -30.12030029 -8.855469704 -1.796730042
ltibia  -0 0 39.22850037
lfoot  6.621047291e-032 -0.4315930009 3.227679968
ltoes  -4.250644065 -19.5611806 -102.515957
